<mxfile host="app.diagrams.net" agent="Mozilla/5.0 (Windows NT 10.0; Win64; x64) AppleWebKit/537.36 (KHTML, like Gecko) Chrome/130.0.0.0 Safari/537.36 OPR/115.0.0.0" version="26.0.8">
  <diagram name="Page-1" id="KAwVgFPnOvoD314zSf9H">
    <mxGraphModel grid="1" page="1" gridSize="10" guides="1" tooltips="1" connect="1" arrows="1" fold="1" pageScale="1" pageWidth="827" pageHeight="1169" math="0" shadow="0">
      <root>
        <mxCell id="0" />
        <mxCell id="1" parent="0" />
        <mxCell id="-heK5C73wOgxycHhXJvX-3" style="edgeStyle=orthogonalEdgeStyle;rounded=0;orthogonalLoop=1;jettySize=auto;html=1;exitX=0.5;exitY=1;exitDx=0;exitDy=0;entryX=0.5;entryY=0;entryDx=0;entryDy=0;" edge="1" parent="1" source="-heK5C73wOgxycHhXJvX-1" target="-heK5C73wOgxycHhXJvX-2">
          <mxGeometry relative="1" as="geometry" />
        </mxCell>
        <mxCell id="-heK5C73wOgxycHhXJvX-1" value="Start" style="ellipse;whiteSpace=wrap;html=1;" vertex="1" parent="1">
          <mxGeometry x="370" y="60" width="120" height="80" as="geometry" />
        </mxCell>
        <mxCell id="-heK5C73wOgxycHhXJvX-5" style="edgeStyle=orthogonalEdgeStyle;rounded=0;orthogonalLoop=1;jettySize=auto;html=1;exitX=0.5;exitY=1;exitDx=0;exitDy=0;entryX=0.5;entryY=0;entryDx=0;entryDy=0;" edge="1" parent="1" source="-heK5C73wOgxycHhXJvX-2" target="-heK5C73wOgxycHhXJvX-4">
          <mxGeometry relative="1" as="geometry" />
        </mxCell>
        <mxCell id="-heK5C73wOgxycHhXJvX-2" value="Input dbName and&lt;div&gt;tableName&lt;/div&gt;" style="shape=parallelogram;perimeter=parallelogramPerimeter;whiteSpace=wrap;html=1;fixedSize=1;" vertex="1" parent="1">
          <mxGeometry x="350" y="180" width="160" height="70" as="geometry" />
        </mxCell>
        <mxCell id="-heK5C73wOgxycHhXJvX-7" style="edgeStyle=orthogonalEdgeStyle;rounded=0;orthogonalLoop=1;jettySize=auto;html=1;exitX=1;exitY=0.5;exitDx=0;exitDy=0;entryX=0.5;entryY=0;entryDx=0;entryDy=0;" edge="1" parent="1" source="-heK5C73wOgxycHhXJvX-4" target="-heK5C73wOgxycHhXJvX-6">
          <mxGeometry relative="1" as="geometry" />
        </mxCell>
        <mxCell id="-heK5C73wOgxycHhXJvX-4" value="Check if dbName&lt;div&gt;exists in databases&lt;/div&gt;" style="rhombus;whiteSpace=wrap;html=1;" vertex="1" parent="1">
          <mxGeometry x="352" y="280" width="156" height="110" as="geometry" />
        </mxCell>
        <mxCell id="-heK5C73wOgxycHhXJvX-9" style="edgeStyle=orthogonalEdgeStyle;rounded=0;orthogonalLoop=1;jettySize=auto;html=1;exitX=0.5;exitY=1;exitDx=0;exitDy=0;entryX=0.5;entryY=0;entryDx=0;entryDy=0;" edge="1" parent="1" source="-heK5C73wOgxycHhXJvX-6" target="-heK5C73wOgxycHhXJvX-8">
          <mxGeometry relative="1" as="geometry" />
        </mxCell>
        <mxCell id="-heK5C73wOgxycHhXJvX-6" value="Output &quot;Database not&lt;div&gt;found :dbName&quot;&lt;/div&gt;" style="rounded=0;whiteSpace=wrap;html=1;" vertex="1" parent="1">
          <mxGeometry x="570" y="380" width="140" height="70" as="geometry" />
        </mxCell>
        <mxCell id="-heK5C73wOgxycHhXJvX-26" style="edgeStyle=orthogonalEdgeStyle;rounded=0;orthogonalLoop=1;jettySize=auto;html=1;entryX=0.5;entryY=0;entryDx=0;entryDy=0;" edge="1" parent="1" source="-heK5C73wOgxycHhXJvX-8" target="-heK5C73wOgxycHhXJvX-21">
          <mxGeometry relative="1" as="geometry">
            <Array as="points">
              <mxPoint x="640" y="790" />
              <mxPoint x="430" y="790" />
            </Array>
          </mxGeometry>
        </mxCell>
        <mxCell id="-heK5C73wOgxycHhXJvX-8" value="Return -1" style="rounded=0;whiteSpace=wrap;html=1;" vertex="1" parent="1">
          <mxGeometry x="570" y="490" width="140" height="70" as="geometry" />
        </mxCell>
        <mxCell id="-heK5C73wOgxycHhXJvX-13" style="edgeStyle=orthogonalEdgeStyle;rounded=0;orthogonalLoop=1;jettySize=auto;html=1;exitX=0.5;exitY=1;exitDx=0;exitDy=0;entryX=0.5;entryY=0;entryDx=0;entryDy=0;" edge="1" parent="1" source="-heK5C73wOgxycHhXJvX-10" target="-heK5C73wOgxycHhXJvX-12">
          <mxGeometry relative="1" as="geometry" />
        </mxCell>
        <mxCell id="-heK5C73wOgxycHhXJvX-18" style="edgeStyle=orthogonalEdgeStyle;rounded=0;orthogonalLoop=1;jettySize=auto;html=1;entryX=0.5;entryY=0;entryDx=0;entryDy=0;" edge="1" parent="1" source="-heK5C73wOgxycHhXJvX-10" target="-heK5C73wOgxycHhXJvX-17">
          <mxGeometry relative="1" as="geometry" />
        </mxCell>
        <mxCell id="-heK5C73wOgxycHhXJvX-10" value="Check if tableName&lt;div&gt;exist in databases[dbName].tables&lt;/div&gt;" style="rhombus;whiteSpace=wrap;html=1;" vertex="1" parent="1">
          <mxGeometry x="312.5" y="420" width="235" height="180" as="geometry" />
        </mxCell>
        <mxCell id="-heK5C73wOgxycHhXJvX-11" style="edgeStyle=orthogonalEdgeStyle;rounded=0;orthogonalLoop=1;jettySize=auto;html=1;entryX=0.487;entryY=0.058;entryDx=0;entryDy=0;entryPerimeter=0;" edge="1" parent="1" source="-heK5C73wOgxycHhXJvX-4" target="-heK5C73wOgxycHhXJvX-10">
          <mxGeometry relative="1" as="geometry" />
        </mxCell>
        <mxCell id="-heK5C73wOgxycHhXJvX-22" style="edgeStyle=orthogonalEdgeStyle;rounded=0;orthogonalLoop=1;jettySize=auto;html=1;" edge="1" parent="1" source="-heK5C73wOgxycHhXJvX-12" target="-heK5C73wOgxycHhXJvX-21">
          <mxGeometry relative="1" as="geometry" />
        </mxCell>
        <mxCell id="-heK5C73wOgxycHhXJvX-12" value="Return size of databases[dbName]&lt;div&gt;.tables[tableName].rows&lt;/div&gt;" style="rounded=0;whiteSpace=wrap;html=1;" vertex="1" parent="1">
          <mxGeometry x="335" y="650" width="190" height="100" as="geometry" />
        </mxCell>
        <mxCell id="-heK5C73wOgxycHhXJvX-14" value="True" style="text;html=1;align=center;verticalAlign=middle;resizable=0;points=[];autosize=1;strokeColor=none;fillColor=none;" vertex="1" parent="1">
          <mxGeometry x="430" y="608" width="50" height="30" as="geometry" />
        </mxCell>
        <mxCell id="-heK5C73wOgxycHhXJvX-15" value="False" style="text;html=1;align=center;verticalAlign=middle;resizable=0;points=[];autosize=1;strokeColor=none;fillColor=none;" vertex="1" parent="1">
          <mxGeometry x="535" y="308" width="50" height="30" as="geometry" />
        </mxCell>
        <mxCell id="-heK5C73wOgxycHhXJvX-16" value="True" style="text;html=1;align=center;verticalAlign=middle;resizable=0;points=[];autosize=1;strokeColor=none;fillColor=none;" vertex="1" parent="1">
          <mxGeometry x="430" y="390" width="50" height="30" as="geometry" />
        </mxCell>
        <mxCell id="-heK5C73wOgxycHhXJvX-20" style="edgeStyle=orthogonalEdgeStyle;rounded=0;orthogonalLoop=1;jettySize=auto;html=1;entryX=0.5;entryY=0;entryDx=0;entryDy=0;" edge="1" parent="1" source="-heK5C73wOgxycHhXJvX-17" target="-heK5C73wOgxycHhXJvX-19">
          <mxGeometry relative="1" as="geometry" />
        </mxCell>
        <mxCell id="-heK5C73wOgxycHhXJvX-17" value="Output &quot;Table not found:&lt;div&gt;tableName&quot;&lt;/div&gt;" style="rounded=0;whiteSpace=wrap;html=1;" vertex="1" parent="1">
          <mxGeometry x="60" y="570" width="150" height="80" as="geometry" />
        </mxCell>
        <mxCell id="-heK5C73wOgxycHhXJvX-25" style="edgeStyle=orthogonalEdgeStyle;rounded=0;orthogonalLoop=1;jettySize=auto;html=1;entryX=0.5;entryY=0;entryDx=0;entryDy=0;" edge="1" parent="1" source="-heK5C73wOgxycHhXJvX-19" target="-heK5C73wOgxycHhXJvX-21">
          <mxGeometry relative="1" as="geometry">
            <Array as="points">
              <mxPoint x="135" y="790" />
              <mxPoint x="430" y="790" />
            </Array>
          </mxGeometry>
        </mxCell>
        <mxCell id="-heK5C73wOgxycHhXJvX-19" value="Return -1" style="rounded=0;whiteSpace=wrap;html=1;" vertex="1" parent="1">
          <mxGeometry x="75" y="690" width="120" height="60" as="geometry" />
        </mxCell>
        <mxCell id="-heK5C73wOgxycHhXJvX-21" value="End" style="ellipse;whiteSpace=wrap;html=1;" vertex="1" parent="1">
          <mxGeometry x="360" y="850" width="140" height="90" as="geometry" />
        </mxCell>
      </root>
    </mxGraphModel>
  </diagram>
</mxfile>
